<?xml version="1.0" encoding="utf-8"?>
<!-- Generator: Adobe Illustrator 25.0.1, SVG Export Plug-In . SVG Version: 6.00 Build 0)  -->
<svg version="1.1" id="Layer_1" xmlns="http://www.w3.org/2000/svg" xmlns:xlink="http://www.w3.org/1999/xlink" x="0px" y="0px"
	 viewBox="0 0 105 65" style="enable-background:new 0 0 105 65;" xml:space="preserve">
<style type="text/css">
	.st0{fill:#1D252C;}
	.st1{fill:#E1251B;}
</style>
<g>
	<g>
		<path class="st0" d="M8.4,53.4h1c0.1,0,0.2,0.1,0.2,0.2v11.1c0,0.1-0.1,0.2-0.2,0.2H8.9c-0.1,0-0.2-0.1-0.2-0.2v-10H8.6l-3.2,7.5
			c-0.1,0.1-0.2,0.2-0.3,0.2H4.5c-0.1,0-0.2-0.1-0.3-0.2l-3.2-7.5H1v10C1,64.9,0.9,65,0.8,65H0.3c-0.1,0-0.2-0.1-0.2-0.2V53.6
			c0-0.1,0.1-0.2,0.2-0.2h1c0.1,0,0.1,0,0.2,0.1l3.4,7.9h0.1l3.4-7.9C8.3,53.5,8.3,53.4,8.4,53.4z"/>
		<path class="st0" d="M10.9,65h-0.6c-0.1,0-0.2-0.1-0.1-0.2l3.6-11.1c0-0.1,0.1-0.2,0.3-0.2h0.8c0.1,0,0.2,0.1,0.3,0.2l3.6,11.1
			c0,0.1,0,0.2-0.1,0.2H18c-0.1,0-0.2-0.1-0.2-0.2l-1-2.9h-4.7l-1,2.9C11.1,64.9,11,65,10.9,65z M14.4,54.4l-2.1,6.7h4.2L14.4,54.4
			L14.4,54.4z"/>
		<path class="st0" d="M20,65h-0.5c-0.1,0-0.2-0.1-0.2-0.2V53.6c0-0.1,0.1-0.2,0.2-0.2h4.1c0.8,0,1.4,0.2,1.9,0.7
			c0.5,0.5,0.7,1.1,0.7,1.9v1.7c0,0.7-0.2,1.2-0.5,1.7c-0.3,0.4-0.8,0.7-1.4,0.8v0.1l2.1,4.5c0.1,0.1,0,0.2-0.1,0.2h-0.6
			c-0.2,0-0.3-0.1-0.3-0.2l-2.1-4.5h-2.8c-0.1,0-0.2,0.1-0.2,0.2v4.4C20.2,64.9,20.2,65,20,65z M20.4,59.5h3.1c0.6,0,1-0.2,1.3-0.5
			c0.3-0.3,0.4-0.7,0.4-1.3V56c0-0.6-0.1-1-0.4-1.3c-0.3-0.3-0.7-0.5-1.3-0.5h-3.1c-0.1,0-0.2,0.1-0.2,0.2v4.9
			C20.2,59.4,20.3,59.5,20.4,59.5z"/>
		<path class="st0" d="M28.2,65h-0.5c-0.1,0-0.2-0.1-0.2-0.2V53.6c0-0.1,0.1-0.2,0.2-0.2h0.5c0.1,0,0.2,0.1,0.2,0.2v6.6h0.1
			c0.1-0.2,0.2-0.4,0.3-0.6l4.6-6c0.1-0.1,0.2-0.2,0.4-0.2h0.6c0.2,0,0.2,0.1,0.1,0.2l-3.6,4.8l4.2,6.3c0.1,0.1,0.1,0.2-0.1,0.2
			h-0.5c-0.2,0-0.3-0.1-0.4-0.2l-3.7-5.6l-1.9,2.2v3.4C28.4,64.9,28.3,65,28.2,65z"/>
		<path class="st0" d="M41.3,65h-5.6c-0.1,0-0.2-0.1-0.2-0.2V53.6c0-0.1,0.1-0.2,0.2-0.2h5.6c0.1,0,0.2,0.1,0.2,0.2V54
			c0,0.1-0.1,0.2-0.2,0.2h-4.7c-0.1,0-0.2,0.1-0.2,0.2v4.1c0,0.1,0.1,0.2,0.2,0.2h4.2c0.1,0,0.2,0.1,0.2,0.2v0.4
			c0,0.1-0.1,0.2-0.2,0.2h-4.2c-0.1,0-0.2,0.1-0.2,0.2V64c0,0.1,0.1,0.2,0.2,0.2h4.7c0.1,0,0.2,0.1,0.2,0.2v0.4
			C41.6,64.9,41.5,65,41.3,65z"/>
		<path class="st0" d="M45.3,65h-0.5c-0.1,0-0.2-0.1-0.2-0.2V54.4c0-0.1-0.1-0.2-0.2-0.2h-2.6c-0.1,0-0.2-0.1-0.2-0.2v-0.4
			c0-0.1,0.1-0.2,0.2-0.2h6.5c0.1,0,0.2,0.1,0.2,0.2V54c0,0.1-0.1,0.2-0.2,0.2h-2.6c-0.1,0-0.2,0.1-0.2,0.2v10.4
			C45.5,64.9,45.5,65,45.3,65z"/>
		<path class="st0" d="M48.9,62.4v-0.6c0-0.1,0.1-0.2,0.2-0.2h0.5c0.1,0,0.2,0.1,0.2,0.2v0.6c0,1.2,0.6,1.8,1.7,1.8h1.9
			c1.2,0,1.7-0.6,1.7-1.8v-0.8c0-0.5-0.2-0.9-0.6-1.2c-0.4-0.3-1-0.5-1.6-0.6c-0.6-0.1-1.2-0.3-1.8-0.4c-0.6-0.1-1.1-0.4-1.6-0.8
			c-0.4-0.4-0.6-0.9-0.6-1.5v-1c0-0.8,0.2-1.4,0.7-1.9c0.5-0.5,1.1-0.7,1.9-0.7h2.1c0.8,0,1.4,0.2,1.9,0.7c0.5,0.5,0.7,1.1,0.7,1.9
			v0.5c0,0.1-0.1,0.2-0.2,0.2h-0.5c-0.1,0-0.2-0.1-0.2-0.2V56c0-1.2-0.6-1.8-1.7-1.8h-1.9c-1.2,0-1.7,0.6-1.7,1.8V57
			c0,0.8,0.7,1.4,2.2,1.7c0.6,0.1,1.2,0.3,1.8,0.4c0.6,0.2,1.1,0.4,1.6,0.8c0.4,0.4,0.6,1,0.6,1.7v0.9c0,0.8-0.2,1.4-0.7,1.9
			c-0.5,0.5-1.1,0.7-1.9,0.7h-2.1c-0.8,0-1.4-0.2-1.9-0.7C49.1,63.9,48.9,63.2,48.9,62.4z"/>
		<path class="st0" d="M66.9,65h-5.7C61,65,61,64.9,61,64.8V53.6c0-0.1,0.1-0.2,0.2-0.2h0.5c0.1,0,0.2,0.1,0.2,0.2V64
			c0,0.1,0.1,0.2,0.2,0.2h4.8c0.1,0,0.2,0.1,0.2,0.2v0.4C67.1,64.9,67,65,66.9,65z"/>
		<path class="st0" d="M68.6,53.6v11.1c0,0.1-0.1,0.2-0.2,0.2h-0.5c-0.1,0-0.2-0.1-0.2-0.2V53.6c0-0.1,0.1-0.2,0.2-0.2h0.5
			C68.6,53.4,68.6,53.5,68.6,53.6z"/>
		<path class="st0" d="M78.7,53.4h1c0.1,0,0.2,0.1,0.2,0.2v11.1c0,0.1-0.1,0.2-0.2,0.2h-0.5c-0.1,0-0.2-0.1-0.2-0.2v-10h-0.1
			l-3.2,7.5c-0.1,0.1-0.2,0.2-0.3,0.2h-0.6c-0.1,0-0.2-0.1-0.3-0.2l-3.2-7.5h-0.1v10c0,0.1-0.1,0.2-0.2,0.2h-0.5
			c-0.1,0-0.2-0.1-0.2-0.2V53.6c0-0.1,0.1-0.2,0.2-0.2h1c0.1,0,0.1,0,0.2,0.1l3.4,7.9h0.1l3.4-7.9C78.5,53.5,78.6,53.4,78.7,53.4z"
			/>
		<path class="st0" d="M82.4,53.6v11.1c0,0.1-0.1,0.2-0.2,0.2h-0.5c-0.1,0-0.2-0.1-0.2-0.2V53.6c0-0.1,0.1-0.2,0.2-0.2h0.5
			C82.4,53.4,82.4,53.5,82.4,53.6z"/>
		<path class="st0" d="M86.6,65h-0.5c-0.1,0-0.2-0.1-0.2-0.2V54.4c0-0.1-0.1-0.2-0.2-0.2h-2.6c-0.1,0-0.2-0.1-0.2-0.2v-0.4
			c0-0.1,0.1-0.2,0.2-0.2h6.5c0.1,0,0.2,0.1,0.2,0.2V54c0,0.1-0.1,0.2-0.2,0.2H87c-0.1,0-0.2,0.1-0.2,0.2v10.4
			C86.8,64.9,86.8,65,86.6,65z"/>
		<path class="st0" d="M96,65h-5.6c-0.1,0-0.2-0.1-0.2-0.2V53.6c0-0.1,0.1-0.2,0.2-0.2H96c0.1,0,0.2,0.1,0.2,0.2V54
			c0,0.1-0.1,0.2-0.2,0.2h-4.7c-0.1,0-0.2,0.1-0.2,0.2v4.1c0,0.1,0.1,0.2,0.2,0.2h4.2c0.1,0,0.2,0.1,0.2,0.2v0.4
			c0,0.1-0.1,0.2-0.2,0.2h-4.2c-0.1,0-0.2,0.1-0.2,0.2V64c0,0.1,0.1,0.2,0.2,0.2H96c0.1,0,0.2,0.1,0.2,0.2v0.4
			C96.2,64.9,96.1,65,96,65z"/>
		<path class="st0" d="M97.5,64.8V53.6c0-0.1,0.1-0.2,0.2-0.2h4.4c0.8,0,1.4,0.2,1.8,0.7c0.4,0.5,0.7,1.1,0.7,1.9v6.5
			c0,0.8-0.2,1.4-0.7,1.9c-0.4,0.5-1.1,0.7-1.8,0.7h-4.4C97.5,65,97.5,64.9,97.5,64.8z M98.5,64.2h3.5c0.6,0,1-0.2,1.3-0.5
			c0.3-0.3,0.4-0.7,0.4-1.3V56c0-0.6-0.1-1-0.4-1.3c-0.3-0.3-0.7-0.5-1.3-0.5h-3.5c-0.1,0-0.2,0.1-0.2,0.2V64
			C98.4,64.1,98.4,64.2,98.5,64.2z"/>
	</g>
	<g>
		<path class="st0" d="M0.4,48.9V3.3c0-0.6,0.2-0.9,0.7-0.9h18.2c3.2,0,5.7,0.9,7.5,2.8c1.8,1.9,2.8,4.4,2.8,7.7v26.4
			c0,3.2-0.9,5.8-2.8,7.7c-1.8,1.9-4.4,2.8-7.5,2.8H1.1C0.6,49.8,0.4,49.5,0.4,48.9z M4.8,46.5H19c2.3,0,4-0.6,5.2-1.9
			c1.2-1.3,1.8-3.1,1.8-5.4V13c0-2.4-0.6-4.2-1.8-5.4c-1.2-1.3-2.9-1.9-5.2-1.9H4.8C4.3,5.7,4.1,6,4.1,6.4v39.4
			C4.1,46.2,4.3,46.5,4.8,46.5z"/>
		<path class="st0" d="M94.6,49.8h-9.3c-3.2,0-5.7-0.9-7.5-2.8c-1.8-1.9-2.8-4.4-2.8-7.7V12.9c0-3.2,0.9-5.8,2.8-7.7
			c1.8-1.9,4.4-2.8,7.5-2.8h9.3c3.2,0,5.7,0.9,7.5,2.8c1.8,1.9,2.8,4.4,2.8,7.7v3.6c0,0.6-0.3,0.9-0.8,0.9H102
			c-0.5,0-0.8-0.3-0.8-0.9V13c0-2.4-0.6-4.2-1.8-5.4c-1.2-1.3-2.9-1.9-5.2-1.9h-8.6c-2.3,0-4,0.6-5.2,1.9c-1.2,1.3-1.8,3.1-1.8,5.4
			v26.1c0,2.3,0.6,4.1,1.8,5.4c1.2,1.3,2.9,1.9,5.2,1.9h8.6c2.3,0,4-0.6,5.2-1.9c1.2-1.3,1.8-3.1,1.8-5.4v-3.5
			c0-0.6,0.3-0.9,0.8-0.9h2.1c0.5,0,0.8,0.3,0.8,0.9v3.6c0,3.2-0.9,5.8-2.8,7.7C100.3,48.8,97.8,49.8,94.6,49.8z"/>
		<g>
			<path class="st0" d="M51.3,33.1C51.3,33.1,51.3,33.1,51.3,33.1L38.3,2.9c-0.1-0.3-0.3-0.4-0.7-0.4h-4c-0.5,0-0.7,0.3-0.7,0.9
				v45.6c0,0.6,0.2,0.9,0.7,0.9h2.1c0.5,0,0.7-0.3,0.7-0.9V8.2c0-0.1,0.1-0.2,0.2-0.2l0,0c0.1,0,0.1,0,0.2,0.1l14,32.4
				c0.1,0.2,0.3,0.1,0.3-0.1V33.1z"/>
			<path class="st0" d="M53.4,33.1C53.4,33.1,53.4,33.1,53.4,33.1L66.3,2.9c0.1-0.3,0.3-0.4,0.7-0.4h4c0.5,0,0.7,0.3,0.7,0.9v45.6
				c0,0.6-0.2,0.9-0.7,0.9h-2.1c-0.5,0-0.7-0.3-0.7-0.9V8.2C68.1,8.1,68,8,67.9,8l0,0c-0.1,0-0.1,0-0.2,0.1l-14,32.4
				c-0.1,0.2-0.3,0.1-0.3-0.1V33.1z"/>
		</g>
	</g>
	<path class="st1" d="M52.1,28.4L40,0.7C39.8,0.4,40.1,0,40.4,0h23.8c0.4,0,0.6,0.4,0.5,0.7L53.1,28.4
		C52.9,28.8,52.3,28.8,52.1,28.4z"/>
</g>
</svg>
